<svg width="15" height="17" viewBox="0 0 15 17" fill="none" xmlns="http://www.w3.org/2000/svg">
<path fill-rule="evenodd" clip-rule="evenodd" d="M2.03924 0.0397311C1.05252 0.259665 0.215657 1.13312 0.0351126 2.13143C0.0101751 2.26931 -0.000381686 4.18642 1.05172e-05 8.51019C0.000500771 13.6949 0.00801797 14.7274 0.0465846 14.9123C0.25942 15.9331 1.13014 16.7936 2.12562 16.9668C2.26874 16.9917 3.0238 17.0004 4.47952 16.9938L6.62271 16.9842L6.73763 16.9041C6.94566 16.7592 7.01008 16.6249 7.01008 16.3363C7.01008 16.0478 6.94566 15.9135 6.73766 15.7686L6.62278 15.6885L4.4959 15.6711C2.38274 15.6538 2.36784 15.6532 2.18425 15.5786C1.82709 15.4333 1.54294 15.1447 1.39782 14.7799L1.32314 14.5921V8.49577V2.39941L1.39782 2.2116C1.54271 1.84735 1.82591 1.55947 2.18425 1.41219L2.36901 1.33628L6.43812 1.32635C9.16762 1.3197 10.5933 1.32801 10.7687 1.35156C11.0609 1.39083 11.2912 1.491 11.493 1.66655C11.6383 1.79303 11.8106 2.04485 11.8727 2.22177C11.9017 2.30439 11.9161 3.29762 11.9285 6.08713L11.9453 9.84129L12.02 9.99538C12.0647 10.0875 12.1489 10.1877 12.2296 10.2446C12.3498 10.3292 12.3924 10.3396 12.6183 10.3396C12.9011 10.3396 12.9708 10.3054 13.1527 10.0769L13.2526 9.95143L13.2617 6.15879C13.2695 2.84619 13.2643 2.33383 13.2202 2.1106C13.0373 1.18488 12.3896 0.441394 11.4779 0.110529L11.1936 0.00737218L6.71593 0.00135887C3.08482 -0.00352487 2.20066 0.0037509 2.03924 0.0397311ZM2.99 4.02403C2.53344 4.23078 2.47131 4.9053 2.88215 5.1947L3.0171 5.28978H6.63719C10.2442 5.28978 10.2576 5.28952 10.3477 5.22118C10.3974 5.18347 10.483 5.09609 10.538 5.02706C10.6304 4.91101 10.638 4.88197 10.638 4.64194C10.638 4.40191 10.6304 4.37287 10.538 4.25682C10.483 4.18779 10.3974 4.10041 10.3477 4.0627C10.2578 3.99446 10.2383 3.99406 6.67269 3.98685C3.74009 3.98094 3.07021 3.98769 2.99 4.02403ZM2.99 6.68185C2.53344 6.88859 2.47131 7.56311 2.88215 7.85252L3.0171 7.9476H6.63719C10.2442 7.9476 10.2576 7.94733 10.3477 7.87899C10.3974 7.84129 10.483 7.75391 10.538 7.68487C10.6304 7.56883 10.638 7.53979 10.638 7.29976C10.638 7.05972 10.6304 7.03069 10.538 6.91464C10.483 6.8456 10.3974 6.75823 10.3477 6.72052C10.2578 6.65228 10.2383 6.65188 6.67269 6.64467C3.74009 6.63876 3.07021 6.6455 2.99 6.68185ZM2.99 9.33953C2.53338 9.54691 2.47128 10.2209 2.88215 10.5103L3.0171 10.6054H5.31014H7.60319L7.7181 10.5253C7.92617 10.3805 7.99059 10.2462 7.99059 9.95757C7.99059 9.66897 7.92617 9.53471 7.71814 9.3898L7.60322 9.30973L5.34564 9.30236C3.51696 9.29641 3.06942 9.30348 2.99 9.33953ZM14.0697 10.7357C14.0158 10.7602 13.9253 10.8307 13.8686 10.8922C13.8118 10.9537 13.0565 12.0132 12.19 13.2466C11.3236 14.48 10.5786 15.5228 10.5346 15.5639C10.4759 15.6187 10.4146 15.6387 10.3051 15.6387C10.1622 15.6387 10.1432 15.6265 9.87385 15.3627C7.67964 13.2134 7.81544 13.326 7.44833 13.3529C7.29603 13.3641 7.23115 13.3877 7.13526 13.4666C6.91301 13.6494 6.87935 13.7207 6.87935 14.009C6.87935 14.2332 6.89036 14.2833 6.96105 14.3807C7.03476 14.4824 8.30079 15.7349 9.03188 16.4294C9.46399 16.8399 9.82554 17.0015 10.3089 17C10.787 16.9985 11.1362 16.8608 11.4629 16.5449C11.5998 16.4125 12.1695 15.6294 13.2982 14.0223C14.1984 12.7405 14.9499 11.6519 14.9681 11.6032C15.0113 11.4877 15.0105 11.2161 14.9665 11.0976C14.9195 10.9708 14.7464 10.7902 14.6182 10.7344C14.4857 10.6765 14.1982 10.6772 14.0697 10.7357Z" fill="#808080"/>
</svg>
