<svg width="728" height="728" viewBox="0 0 728 728" fill="none" xmlns="http://www.w3.org/2000/svg">
<path fill-rule="evenodd" clip-rule="evenodd" d="M338.32 0.66816C265.25 6.35425 202.396 30.2484 142.088 75.2698C124.831 88.1522 87.4505 125.604 74.332 143.155C36.7908 193.378 14.2945 245.448 3.88368 306.208C-0.299425 330.628 -1.26695 373.864 1.78359 400.182C8.60177 459.025 26.9946 515.314 54.0824 560.243C66.7085 581.182 86.3321 606.021 104.64 624.233C149.268 668.628 204.906 699.863 267.916 715.894C331.354 732.035 396.744 732.035 460.182 715.894C522.354 700.076 577.91 669.135 621.728 625.924C650.655 597.4 670.309 570.031 688.591 532.818C715.75 477.539 729.519 414.111 727.867 351.878C725.701 270.257 698.13 197.256 645.002 132.47C586.845 61.5539 502.026 14.6134 411.002 2.9691C389.576 0.227919 357.161 -0.797885 338.32 0.66816ZM318.541 114.453C323.916 117.316 329.84 126.214 329.879 131.477C329.891 133.282 324.829 153.798 318.628 177.068C312.429 200.34 307.146 220.414 306.89 221.681C306.455 223.833 362.396 322.671 364.049 322.671C365.702 322.671 421.644 223.833 421.208 221.681C420.952 220.414 415.669 200.34 409.47 177.068C403.269 153.798 398.207 133.282 398.22 131.477C398.284 122.538 409.395 111.811 418.59 111.811C424.326 111.811 431.897 115.728 435.234 120.421C437.382 123.441 457.956 194.869 457.956 199.304C457.956 201.048 463.288 199.876 500.041 190.062C536.126 180.425 538.055 180.063 543.634 181.869C551.864 184.535 558.03 192.515 558.02 200.486C558.012 207.851 554.773 214.513 549.53 217.952C547.384 219.36 525.827 225.835 501.625 232.34C477.424 238.847 457.469 244.362 457.281 244.597C456.191 245.964 402.12 340.439 401.495 342.066C400.858 343.731 409.786 344.042 458.17 344.042H515.604L547.605 311.97C581.74 277.761 586.411 274.344 596.475 276.235C609.283 278.641 616.975 294.023 611.005 305.289C609.883 307.405 596.445 321.625 581.141 336.888L553.316 364.642L580.879 392.453C596.039 407.75 609.478 422.316 610.743 424.824C616.867 436.961 608.816 452.736 595.97 453.774C584.712 454.683 585.624 455.359 549.756 419.552L515.505 385.359H458.274C421.6 385.359 401.043 385.863 401.043 386.764C401.043 388.352 454.648 482.005 457.091 484.684C457.958 485.636 478.197 491.658 502.065 498.066C525.931 504.475 547.229 510.96 549.393 512.476C565.19 523.549 557.459 549.228 538.345 549.177C535.215 549.168 516.052 544.689 495.763 539.225C475.473 533.76 458.759 529.442 458.621 529.628C458.483 529.816 454.026 546.318 448.716 566.299C437.281 609.321 437.966 607.31 433.048 612.228C424.697 620.579 411.92 620.12 404.089 611.188C396.602 602.651 396.77 600.878 409.541 553.273C415.924 529.486 421.217 509.061 421.305 507.886C421.486 505.458 365.624 408.155 364.049 408.155C362.474 408.155 306.613 505.458 306.793 507.886C306.881 509.061 312.174 529.486 318.557 553.273C331.326 600.866 331.495 602.653 324.022 611.174C316.194 620.103 303.398 620.576 295.065 612.244C290.129 607.309 290.821 609.332 279.382 566.299C274.073 546.318 269.615 529.816 269.477 529.628C269.339 529.442 252.625 533.76 232.335 539.225C212.046 544.689 192.883 549.168 189.753 549.177C170.642 549.228 162.903 523.528 178.705 512.485C180.869 510.972 201.207 504.805 223.901 498.78C246.595 492.756 266.477 487.283 268.085 486.616C269.912 485.859 281.522 467.158 299.032 436.772C314.445 410.024 327.056 387.513 327.056 386.75C327.056 385.869 306.073 385.359 269.824 385.359H212.594L178.342 419.552C142.474 455.359 143.386 454.683 132.129 453.774C119.282 452.736 111.232 436.961 117.355 424.824C118.62 422.316 132.059 407.75 147.219 392.453L174.782 364.642L146.957 336.888C131.653 321.625 118.215 307.405 117.094 305.289C111.123 294.023 118.815 278.641 131.624 276.235C141.687 274.344 146.358 277.761 180.493 311.97L212.494 344.042H269.928C318.312 344.042 327.241 343.731 326.603 342.066C325.977 340.432 271.9 245.952 270.811 244.592C270.622 244.355 250.646 238.826 226.419 232.305C202.193 225.782 180.638 219.31 178.52 217.921C173.322 214.51 170.087 207.828 170.078 200.486C170.068 192.494 176.233 184.535 184.51 181.855C190.15 180.029 191.953 180.368 228.102 190.047C264.803 199.874 270.143 201.05 270.143 199.304C270.143 194.894 290.714 123.446 292.847 120.445C298.655 112.277 309.647 109.714 318.541 114.453Z" fill="#C6C6C6"/>
</svg>
