<svg width="20" height="17" viewBox="0 0 20 17" fill="none" xmlns="http://www.w3.org/2000/svg">
<path fill-rule="evenodd" clip-rule="evenodd" d="M2.90247 0.0927956C2.66753 0.202197 2.45319 0.405448 2.33042 0.635191L2.24224 0.800191L2.2227 5.6451L2.20317 10.49L1.14463 12.7562C0.562421 14.0026 0.063591 15.0906 0.0361235 15.174C0.00513954 15.268 -0.00705088 15.4387 0.00400646 15.6233C0.0338183 16.1201 0.286379 16.4905 0.737971 16.6997L0.952866 16.7993L9.998 16.7997L19.0431 16.8L19.2776 16.6875C19.7377 16.4666 19.9993 16.0583 20 15.56C20.0002 15.3796 19.9746 15.2098 19.9292 15.0911C19.89 14.9888 19.3889 13.8936 18.8156 12.6574L17.7733 10.4097L17.7729 5.64401L17.7725 0.878335L17.6797 0.67899C17.5615 0.425141 17.3474 0.210988 17.0935 0.0927956L16.8942 0H9.998H3.10182L2.90247 0.0927956ZM16.6011 5.58649V10.0016H10.0175H3.43393V5.58649V1.17137H10.0175H16.6011V5.58649ZM17.7988 13.3505C18.3758 14.5951 18.789 15.5331 18.7756 15.5678C18.7551 15.6212 18.4436 15.6279 16.0065 15.6276L13.2605 15.6273L12.9175 14.5239C12.5903 13.4712 12.5674 13.4136 12.4199 13.273L12.2652 13.1255L9.97963 13.1362L7.69401 13.1469L7.55874 13.2836C7.43762 13.4061 7.38741 13.536 7.07949 14.5239L6.7355 15.6273L3.98949 15.6276C1.56879 15.6279 1.24075 15.6209 1.22066 15.5686C1.20281 15.5221 2.56896 12.502 3.11592 11.3788L3.21587 11.1735L10.0075 11.1834L16.799 11.1933L17.7988 13.3505ZM11.7682 14.9068C11.8711 15.2409 11.9652 15.5398 11.9772 15.5711C11.9961 15.6204 11.7338 15.628 9.998 15.628C8.26219 15.628 7.99986 15.6204 8.01881 15.5711C8.03081 15.5398 8.12486 15.2409 8.22781 14.9068L8.41496 14.2995H9.998H11.581L11.7682 14.9068Z" fill="#808080"/>
</svg>
