<svg width="60" height="50" viewBox="0 0 60 50" fill="none" xmlns="http://www.w3.org/2000/svg">
<mask id="mask0_41_442" style="mask-type:alpha" maskUnits="userSpaceOnUse" x="0" y="0" width="45" height="43">
<path d="M0 42.665V0H44.8225V42.665H0Z" fill="white"/>
</mask>
<g mask="url(#mask0_41_442)">
<path fill-rule="evenodd" clip-rule="evenodd" d="M44.2515 19.4609L23.7367 39.7366C19.7863 43.641 13.3813 43.641 9.43082 39.7366L2.96286 33.3442C-0.987619 29.4397 -0.987619 23.1094 2.96286 19.2049L21.8232 0.564364C22.5847 -0.188243 23.8193 -0.188243 24.5807 0.564364C25.3422 1.31697 25.3422 2.53719 24.5807 3.2898L5.72042 21.9304C3.2929 24.3296 3.2929 28.2195 5.72042 30.6188L12.1884 37.0111C14.6159 39.4104 18.5517 39.4104 20.9792 37.0111L41.4939 16.7354C42.2554 15.9828 43.49 15.9828 44.2515 16.7354C45.013 17.488 45.013 18.7083 44.2515 19.4609Z" fill="#317CF1"/>
</g>
<path fill-rule="evenodd" clip-rule="evenodd" d="M9.6578 27.6332C8.90157 26.9033 8.90331 25.7215 9.66195 24.9939L28.5102 6.90827C29.2686 6.1805 30.4965 6.18239 31.2527 6.91226H31.2529C32.0091 7.64234 32.0072 8.82399 31.2488 9.55155L12.4003 27.6372C11.6419 28.365 10.414 28.3631 9.6578 27.6332Z" fill="#5B4EEB"/>
<path fill-rule="evenodd" clip-rule="evenodd" d="M50.3239 22.3851C51.1053 23.1395 51.1033 24.3605 50.3196 25.1126L31.6003 43.0735C30.8167 43.8255 29.548 43.8238 28.7666 43.0694H28.7664C27.985 42.3152 27.987 41.0941 28.7707 40.3421L47.4902 22.381C48.2739 21.6289 49.5426 21.6309 50.3239 22.3851Z" fill="#317CF1"/>
<path fill-rule="evenodd" clip-rule="evenodd" d="M15.1203 30.8747L36.1248 10.2053C40.0984 6.2952 46.5407 6.2952 50.5143 10.2053L57.0198 16.6073C60.9934 20.5174 60.9934 26.857 57.0198 30.7672L38.0496 49.4347C37.2836 50.1884 36.0418 50.1884 35.2757 49.4347C34.51 48.681 34.51 47.4592 35.2757 46.7053L54.2461 28.0378C56.6878 25.635 56.6878 21.7394 54.2461 19.3367L47.7406 12.9348C45.2989 10.532 41.3402 10.532 38.8985 12.9348L17.894 33.6041C17.1281 34.3578 15.8863 34.3578 15.1203 33.6041C14.3544 32.8504 14.3544 31.6284 15.1203 30.8747Z" fill="#5B4EEB"/>
</svg>
